<?xml version="1.0" encoding="UTF-8"?>
<svg width="574.252842px" height="273.571096px" viewBox="0 0 574.252842 273.571096" version="1.1" xmlns="http://www.w3.org/2000/svg" xmlns:xlink="http://www.w3.org/1999/xlink">
    <!-- Generator: Sketch 52.5 (67469) - http://www.bohemiancoding.com/sketch -->
    <title>Amazon Gift Card</title>
    <desc>Created with Sketch.</desc>
    <defs>
        <path d="M182.390625,143.0625 L186.492188,143.671875 C186.664063,144.937506 187.140621,145.859372 187.921875,146.4375 C188.968755,147.218754 190.398428,147.609375 192.210938,147.609375 C194.164072,147.609375 195.67187,147.218754 196.734375,146.4375 C197.79688,145.656246 198.515623,144.562507 198.890625,143.15625 C199.109376,142.296871 199.210938,140.492201 199.195312,137.742188 C197.351553,139.914073 195.054701,141 192.304688,141 C188.882795,141 186.234384,139.765637 184.359375,137.296875 C182.484366,134.828113 181.546875,131.867205 181.546875,128.414062 C181.546875,126.039051 181.976558,123.847666 182.835938,121.839844 C183.695317,119.832021 184.941398,118.281255 186.574219,117.1875 C188.207039,116.093745 190.124989,115.546875 192.328125,115.546875 C195.26564,115.546875 197.68749,116.734363 199.59375,119.109375 L199.59375,116.109375 L203.484375,116.109375 L203.484375,137.625 C203.484375,141.500019 203.089848,144.246086 202.300781,145.863281 C201.511715,147.480477 200.261727,148.757808 198.550781,149.695312 C196.839835,150.632817 194.734387,151.101562 192.234375,151.101562 C189.26561,151.101562 186.867197,150.4336 185.039062,149.097656 C183.210928,147.761712 182.328125,145.750013 182.390625,143.0625 Z M185.882812,128.109375 C185.882812,131.375016 186.531244,133.757805 187.828125,135.257812 C189.125006,136.75782 190.74999,137.507812 192.703125,137.507812 C194.640635,137.507812 196.265618,136.761726 197.578125,135.269531 C198.890632,133.777336 199.546875,131.437516 199.546875,128.25 C199.546875,125.20311 198.871101,122.906258 197.519531,121.359375 C196.167962,119.812492 194.539072,119.039062 192.632812,119.039062 C190.757803,119.039062 189.164069,119.800774 187.851562,121.324219 C186.539056,122.847664 185.882812,125.10936 185.882812,128.109375 Z M209.882812,111.492188 L209.882812,106.640625 L214.101562,106.640625 L214.101562,111.492188 L209.882812,111.492188 Z M209.882812,141 L209.882812,116.109375 L214.101562,116.109375 L214.101562,141 L209.882812,141 Z M221.53125,141 L221.53125,119.390625 L217.804688,119.390625 L217.804688,116.109375 L221.53125,116.109375 L221.53125,113.460938 C221.53125,111.789054 221.679686,110.546879 221.976562,109.734375 C222.382815,108.64062 223.097651,107.75391 224.121094,107.074219 C225.144536,106.394528 226.578116,106.054688 228.421875,106.054688 C229.609381,106.054688 230.921868,106.195311 232.359375,106.476562 L231.726562,110.15625 C230.851558,109.999999 230.023441,109.921875 229.242188,109.921875 C227.960931,109.921875 227.05469,110.19531 226.523438,110.742188 C225.992185,111.289065 225.726562,112.312492 225.726562,113.8125 L225.726562,116.109375 L230.578125,116.109375 L230.578125,119.390625 L225.726562,119.390625 L225.726562,141 L221.53125,141 Z M243.070312,137.226562 L243.679688,140.953125 C242.492182,141.203126 241.429692,141.328125 240.492188,141.328125 C238.96093,141.328125 237.773442,141.08594 236.929688,140.601562 C236.085933,140.117185 235.492189,139.480473 235.148438,138.691406 C234.804686,137.90234 234.632812,136.2422 234.632812,133.710938 L234.632812,119.390625 L231.539062,119.390625 L231.539062,116.109375 L234.632812,116.109375 L234.632812,109.945312 L238.828125,107.414062 L238.828125,116.109375 L243.070312,116.109375 L243.070312,119.390625 L238.828125,119.390625 L238.828125,133.945312 C238.828125,135.148444 238.902343,135.921873 239.050781,136.265625 C239.199219,136.609377 239.441405,136.882811 239.777344,137.085938 C240.113283,137.289064 240.593747,137.390625 241.21875,137.390625 C241.687502,137.390625 242.304684,137.335938 243.070312,137.226562 Z M276.773438,131.882812 L280.921875,132.421875 C280.468748,135.281264 279.308603,137.519523 277.441406,139.136719 C275.574209,140.753914 273.281264,141.5625 270.5625,141.5625 C267.156233,141.5625 264.417979,140.44923 262.347656,138.222656 C260.277333,135.996083 259.242188,132.804708 259.242188,128.648438 C259.242188,125.960924 259.687496,123.609385 260.578125,121.59375 C261.468754,119.578115 262.82421,118.066411 264.644531,117.058594 C266.464853,116.050776 268.445302,115.546875 270.585938,115.546875 C273.289076,115.546875 275.499991,116.230462 277.21875,117.597656 C278.937509,118.964851 280.03906,120.906237 280.523438,123.421875 L276.421875,124.054688 C276.031248,122.382804 275.339849,121.125004 274.347656,120.28125 C273.355464,119.437496 272.156257,119.015625 270.75,119.015625 C268.624989,119.015625 266.898444,119.777336 265.570312,121.300781 C264.242181,122.824226 263.578125,125.234359 263.578125,128.53125 C263.578125,131.875017 264.218744,134.30468 265.5,135.820312 C266.781256,137.335945 268.453115,138.09375 270.515625,138.09375 C272.171883,138.09375 273.554682,137.585943 274.664062,136.570312 C275.773443,135.554682 276.476561,133.992198 276.773438,131.882812 Z M300.773438,137.929688 C299.21093,139.257819 297.707038,140.19531 296.261719,140.742188 C294.816399,141.289065 293.265633,141.5625 291.609375,141.5625 C288.874986,141.5625 286.773445,140.894538 285.304688,139.558594 C283.83593,138.22265 283.101562,136.515635 283.101562,134.4375 C283.101562,133.218744 283.378903,132.105474 283.933594,131.097656 C284.488284,130.089839 285.214839,129.281253 286.113281,128.671875 C287.011723,128.062497 288.023432,127.601564 289.148438,127.289062 C289.976567,127.070311 291.226554,126.859376 292.898438,126.65625 C296.304705,126.249998 298.812492,125.765628 300.421875,125.203125 C300.4375,124.624997 300.445312,124.257813 300.445312,124.101562 C300.445312,122.382804 300.046879,121.171879 299.25,120.46875 C298.17187,119.51562 296.570323,119.039062 294.445312,119.039062 C292.460928,119.039062 290.996098,119.386715 290.050781,120.082031 C289.105464,120.777347 288.406252,122.007804 287.953125,123.773438 L283.828125,123.210938 C284.203127,121.445304 284.820308,120.019537 285.679688,118.933594 C286.539067,117.847651 287.781242,117.011722 289.40625,116.425781 C291.031258,115.839841 292.914052,115.546875 295.054688,115.546875 C297.179698,115.546875 298.906243,115.796873 300.234375,116.296875 C301.562507,116.796877 302.539059,117.425777 303.164062,118.183594 C303.789066,118.94141 304.226561,119.898432 304.476562,121.054688 C304.617188,121.773441 304.6875,123.070303 304.6875,124.945312 L304.6875,130.570312 C304.6875,134.492207 304.777343,136.972651 304.957031,138.011719 C305.13672,139.050786 305.492185,140.04687 306.023438,141 L301.617188,141 C301.179685,140.124996 300.898438,139.101568 300.773438,137.929688 Z M300.421875,128.507812 C298.890617,129.132816 296.593765,129.66406 293.53125,130.101562 C291.796866,130.351564 290.570316,130.632811 289.851562,130.945312 C289.132809,131.257814 288.578127,131.714841 288.1875,132.316406 C287.796873,132.917972 287.601562,133.585934 287.601562,134.320312 C287.601562,135.445318 288.027339,136.382809 288.878906,137.132812 C289.730473,137.882816 290.976554,138.257812 292.617188,138.257812 C294.242196,138.257812 295.687494,137.902347 296.953125,137.191406 C298.218756,136.480465 299.148435,135.507819 299.742188,134.273438 C300.195315,133.320308 300.421875,131.914072 300.421875,130.054688 L300.421875,128.507812 Z M311.179688,141 L311.179688,116.109375 L314.976562,116.109375 L314.976562,119.882812 C315.945317,118.117179 316.83984,116.953128 317.660156,116.390625 C318.480473,115.828122 319.382808,115.546875 320.367188,115.546875 C321.78907,115.546875 323.234368,115.999995 324.703125,116.90625 L323.25,120.820312 C322.218745,120.210934 321.187505,119.90625 320.15625,119.90625 C319.23437,119.90625 318.406254,120.183591 317.671875,120.738281 C316.937496,121.292972 316.414064,122.062495 316.101562,123.046875 C315.63281,124.546883 315.398438,126.187491 315.398438,127.96875 L315.398438,141 L311.179688,141 Z M343.359375,141 L343.359375,137.859375 C341.781242,140.328137 339.460953,141.5625 336.398438,141.5625 C334.414053,141.5625 332.589852,141.01563 330.925781,139.921875 C329.26171,138.82812 327.972661,137.300791 327.058594,135.339844 C326.144527,133.378896 325.6875,131.125013 325.6875,128.578125 C325.6875,126.093738 326.101558,123.839854 326.929688,121.816406 C327.757817,119.792959 328.999992,118.242193 330.65625,117.164062 C332.312508,116.085932 334.164052,115.546875 336.210938,115.546875 C337.710945,115.546875 339.046869,115.863278 340.21875,116.496094 C341.390631,117.128909 342.343746,117.95312 343.078125,118.96875 L343.078125,106.640625 L347.273438,106.640625 L347.273438,141 L343.359375,141 Z M330.023438,128.578125 C330.023438,131.765641 330.695306,134.14843 332.039062,135.726562 C333.382819,137.304695 334.968741,138.09375 336.796875,138.09375 C338.640634,138.09375 340.207025,137.339851 341.496094,135.832031 C342.785163,134.324211 343.429688,132.023453 343.429688,128.929688 C343.429688,125.52342 342.773444,123.023445 341.460938,121.429688 C340.148431,119.83593 338.53126,119.039062 336.609375,119.039062 C334.734366,119.039062 333.167975,119.80468 331.910156,121.335938 C330.652337,122.867195 330.023438,125.281234 330.023438,128.578125 Z" id="path-1"></path>
    </defs>
    <g id="Amazon-Gift-Card" stroke="none" stroke-width="1" fill="none" fill-rule="evenodd">
        <rect id="Rectangle" fill="#0A0A0A" fill-rule="nonzero" x="0" y="0" width="574" height="274" rx="7"></rect>
        <g id="gift-card">
            <use fill="#2D3239" xlink:href="#path-1"></use>
            <use fill="#FF9201" xlink:href="#path-1"></use>
        </g>
        <g id="Amazon.com_logo" transform="translate(42.000000, 66.000000)">
            <path d="M123.149886,46.7528552 C111.622989,55.3911549 94.9154567,60 80.5305823,60 C60.3606675,60 42.2025685,52.4151571 28.4652646,39.8000851 C27.3859688,38.8080803 28.3530141,37.4561567 29.6481756,38.228683 C44.4734041,46.9986631 62.8042016,52.2746969 81.7393995,52.2746969 C94.5096413,52.2746969 108.557781,49.5883927 121.474815,44.0138856 C123.426186,43.1711208 125.058083,45.3131403 123.149886,46.7528552" id="path8" fill="#FF9900"></path>
            <path d="M126.875035,41.0829744 C125.461695,39.2428076 117.497138,40.2135391 113.922233,40.6440373 C112.833129,40.7790956 112.66686,39.8168062 113.647875,39.1246271 C119.991258,34.5917391 130.400058,35.9001148 131.613864,37.4195186 C132.827663,38.9473677 131.297942,49.540996 125.336989,54.5972297 C124.422479,55.3738143 123.549537,54.9602036 123.956914,53.9303802 C125.295422,50.5370443 128.296683,42.9315834 126.875035,41.0829744" id="path10" fill="#FF9900"></path>
            <path d="M114.137157,6.48315545 L114.137157,2.10669122 C114.137157,1.44435286 114.65016,1 115.265763,1 L135.247233,1 C135.888493,1 136.401496,1.4527379 136.401496,2.10669122 L136.401496,5.85435405 C136.392951,6.48315545 135.854292,7.30479042 134.896681,8.60431522 L124.542569,23.1003098 C128.390097,23.0080904 132.451372,23.5698146 135.939793,25.498144 C136.726398,25.9341118 136.940149,26.5712983 137,27.2001061 L137,31.8700116 C137,32.507198 136.281794,33.2533708 135.52939,32.86771 C129.381898,29.7069266 121.216599,29.3631814 114.419307,32.901247 C113.726754,33.2701441 113,32.5323499 113,31.8951635 L113,27.4600104 C113,26.7473682 113.008545,25.5316778 113.735299,24.4501385 L125.731026,7.58146483 L115.291413,7.58146483 C114.65016,7.58146483 114.137157,7.13711517 114.137157,6.48315545" id="path12" fill="#CCCCCC"></path>
            <path d="M41.1745441,35 L35.0873121,35 C34.5051344,34.9572696 34.0428094,34.5213718 34,33.9658113 L34,2.77778323 C34,2.15385145 34.522253,1.65812067 35.1729277,1.65812067 L40.8492067,1.65812067 C41.4399567,1.68374523 41.9108344,2.13675211 41.9536471,2.70085415 L41.9536471,6.77778247 L42.0649471,6.77778247 C43.5460871,2.83760646 46.3285733,1 50.0785191,1 C53.8883893,1 56.2684884,2.83760646 57.9807908,6.77778247 C59.4533716,2.83760646 62.8009202,1 66.3881971,1 C68.9395274,1 71.7305795,2.05128152 73.4343194,4.41025634 C75.3606593,7.03418774 74.9668281,10.846153 74.9668281,14.188038 L74.9582689,33.8717992 C74.9582689,34.495731 74.4360159,35 73.7853412,35 L67.7066652,35 C67.0988032,34.9572696 66.6107971,34.4700901 66.6107971,33.8717992 L66.6107971,17.3418826 C66.6107971,16.0256445 66.7306531,12.7435924 66.4395659,11.4957256 C65.9858067,9.40171386 64.6245259,8.81196445 62.8608515,8.81196445 C61.3882707,8.81196445 59.8471995,9.79487145 59.2222091,11.3675246 C58.5972187,12.9401745 58.65715,15.5726474 58.65715,17.3418826 L58.65715,33.8717992 C58.65715,34.495731 58.134897,35 57.4842222,35 L51.405553,35 C50.7891251,34.9572696 50.3096783,34.4700901 50.3096783,33.8717992 L50.301119,17.3418826 C50.301119,13.8632517 50.8747342,8.74358993 46.5511766,8.74358993 C42.1762405,8.74358993 42.3474718,13.7350409 42.3474718,17.3418826 L42.3474718,33.8717992 C42.3474718,34.495731 41.8252188,35 41.1745441,35" id="path14" fill="#CCCCCC"></path>
            <path d="M153.887171,1 C163.044021,1 168,8.82190448 168,18.7676395 C168,28.3766657 162.523246,36 153.887171,36 C144.895229,36 140,28.1780955 140,18.430934 C140,8.62333431 144.955986,1 153.887171,1 M153.939245,7.43192312 C149.391203,7.43192312 149.104776,13.5962002 149.104776,17.4380897 C149.104776,21.2886071 149.044019,29.5076486 153.887171,29.5076486 C158.669563,29.5076486 158.895231,22.8771652 158.895231,18.8367022 C158.895231,16.1776059 158.782397,13.0004962 157.975201,10.4795253 C157.280842,8.28663537 155.900811,7.43192312 153.939245,7.43192312" id="path16" fill="#CCCCCC"></path>
            <path d="M180.16364,35 L174.104073,35 C173.4964,34.9572696 173.008553,34.4700901 173.008553,33.8717992 L173,2.6752133 C173.051352,2.10256322 173.556318,1.65812067 174.172544,1.65812067 L179.812739,1.65812067 C180.343375,1.68374523 180.77987,2.04273674 180.899696,2.52991621 L180.899696,7.29914431 L181.010953,7.29914431 C182.714143,3.03418851 185.102018,1 189.304346,1 C192.034574,1 194.696337,1.98290699 196.40808,4.67521291 C198,7.17094005 198,11.3675246 198,14.3846136 L198,34.0170995 C197.931532,34.5641022 197.426566,35 196.827462,35 L190.725096,35 C190.168775,34.9572696 189.706605,34.5470127 189.646699,34.0170995 L189.646699,17.076926 C189.646699,13.6666697 190.040399,8.67521215 185.838067,8.67521215 C184.357415,8.67521215 182.996575,9.66667044 182.320437,11.1709393 C181.464571,13.0769268 181.353307,14.974363 181.353307,17.076926 L181.353307,33.8717992 C181.344754,34.495731 180.814109,35 180.163646,35" id="path18" fill="#CCCCCC"></path>
            <path d="M202,31.9954882 C202,30.335334 203.345711,29 204.999998,29 C206.654286,29 208,30.335334 208,31.9954882 C208,33.6466118 206.654286,35 204.999998,35 C203.345711,35 202,33.6466118 202,31.9954882" id="path20" fill="#CCCCCC"></path>
            <path d="M266.149568,35 C265.505115,34.9737401 265,34.4751315 265,33.8452899 L265,1.92452352 C265.034836,1.35591066 265.513821,0.909771902 266.106025,0.87478645 L268.379033,0.87478645 C269.006073,0.87478645 269.511184,1.3296674 269.563437,1.92452352 L269.563437,6.5783594 C271.183286,2.8867786 274.19655,0 278.002319,0 L278.237456,0 L278.463887,0 C282.504793,0 285.457095,2.99175164 286.554413,7.33941394 C288.270054,3.04423816 291.492332,0 295.742253,0 L295.959974,0 L296.212531,0 C299.217085,0 302.108424,1.94201457 303.606348,4.89877409 C305.052015,7.72431731 304.999763,11.4858757 304.999763,14.6438358 L304.991059,33.8452899 C304.999763,34.4576304 304.503365,34.9562557 303.885038,35 L301.167874,35 C300.575671,34.9737401 300.096686,34.5538612 300.018307,34.0027495 L300.018307,14.6438358 C300.018307,12.3606621 300.131522,9.93751335 299.208382,7.85553361 C298.267826,5.72981621 296.465092,4.40014882 294.531729,4.30392798 C292.371933,4.40889768 290.386314,5.99225549 289.097402,8.12672174 C287.425303,10.8822774 287.486266,13.3666549 287.486266,16.5858537 L287.486266,34.0202405 C287.407887,34.545109 286.946315,34.9562557 286.380241,35 L283.680497,35 C283.036041,34.9737401 282.52222,34.4751315 282.52222,33.8452899 L282.504813,13.3666549 C282.504813,11.4858757 282.391598,9.27267965 281.529424,7.58435214 C280.527905,5.65983864 278.733881,4.40014882 276.852768,4.30392798 C274.901986,4.41764989 272.933784,5.91352571 271.7668,7.65433973 C270.260166,9.87627796 269.972776,12.6230914 269.972776,15.448638 L269.972776,33.8452899 C269.972776,34.4576304 269.476371,34.9562557 268.858041,35 L266.149587,35" id="path22" fill="#CCCCCC"></path>
            <path d="M248.329114,35 C239.814348,35 236,26.1662969 236,17.332597 C236,8.04390338 240.481014,0 249.054852,0 L249.274262,0 L249.510549,0 C257.848101,0 262,8.56757681 262,17.4012767 C262,26.7586434 257.400844,35 248.776373,35 L248.556963,35 L248.329114,35 M248.953587,30.7162149 C251.755274,30.6217779 253.966244,28.8533208 255.274263,25.9087596 C256.447259,23.2646548 256.675105,20.2342391 256.675105,17.332597 C256.675105,14.1734078 256.337554,10.8768724 254.877636,8.17267365 C253.56962,5.81186998 251.324894,4.30954573 248.945148,4.22369779 C246.295358,4.31812496 243.924051,6.14667598 242.73418,8.96247014 C241.662449,11.4005425 241.333335,14.6369841 241.333335,17.332597 C241.333335,20.3630127 241.721519,23.8655871 242.953586,26.5011061 C244.151901,28.9992659 246.455696,30.6217779 248.953587,30.7162149" id="path24" fill="#CCCCCC"></path>
            <path d="M221.423026,30.5788523 C225.309516,30.4586612 227.35142,27.3424042 228.192205,23.3075705 C228.363795,22.8010719 228.74987,22.4147578 229.316113,22.4147578 L231.881367,22.4061786 C232.490505,22.4319163 233.04817,22.8955089 232.996694,23.462108 C231.81273,30.33848 227.668862,35 221.766206,35 L221.525982,35 L221.302916,35 C212.706313,35 209,26.3637468 209,17.5987201 C209,8.9023828 212.757796,0 221.354393,0 L221.586036,0 L221.817682,0 C227.788972,0 232.044376,4.60142284 232.970956,11.4778047 C232.970956,11.9928891 232.490505,12.4392905 231.924263,12.4993844 L229.238898,12.4650446 C228.672656,12.3877824 228.303738,11.9070411 228.217943,11.3662027 C227.574486,7.528819 225.36957,4.47265584 221.697569,4.35246479 C215.854967,4.54132896 214.190561,11.735342 214.190561,17.2724998 C214.190561,22.6036286 215.580431,30.3899947 221.423026,30.5788588" id="path26" fill="#CCCCCC"></path>
            <path d="M97.878744,19.554519 C97.878744,21.9406852 97.9384827,23.9305939 96.7437212,26.0497199 C95.7793796,27.7725886 94.243259,28.83215 92.5449924,28.83215 C90.215208,28.83215 88.8497686,27.040365 88.8497686,24.3957676 C88.8497686,19.1754891 93.4837322,18.2279143 97.878744,18.2279143 L97.878744,19.554519 M103.997628,34.4831407 C103.596533,34.8449432 103.016216,34.870786 102.563914,34.6295887 C100.549887,32.9411815 100.182926,32.1572788 99.0820406,30.5464 C95.7537777,33.9749001 93.3898533,35 89.080182,35 C83.9683119,35 80,31.8213159 80,25.4553355 C80,20.4848664 82.6626145,17.0994366 86.4687806,15.4454875 C89.7629066,13.9810469 94.36273,13.7226221 97.878744,13.3177494 L97.878744,12.5252314 C97.878744,11.0694061 97.9896864,9.34654071 97.1362872,8.08885558 C96.4023622,6.96037459 94.9857126,6.4952009 93.7312188,6.4952009 C91.4184981,6.4952009 89.3618088,7.69259164 88.8582972,10.1735169 C88.7558898,10.7248376 88.3547953,11.2675397 87.8000799,11.2933825 L81.9201515,10.655918 C81.4251781,10.543938 80.8704693,10.1390587 81.0155486,9.37239008 C82.3639209,2.17081492 88.8156318,0 94.5846148,0 C97.537385,0 101.394755,0.792518013 103.724539,3.04947013 C106.677303,5.83189689 106.395682,9.54467103 106.395682,13.5847928 L106.395682,23.1294638 C106.395682,25.9980376 107.573374,27.2557228 108.682795,28.8063072 C109.066829,29.3576181 109.15217,30.0209221 108.657177,30.4344102 C107.419747,31.4767474 105.217971,33.4149705 104.006143,34.5003747 L103.997615,34.4831243" id="path28" fill="#CCCCCC"></path>
            <path d="M17.8740747,19.554519 C17.8740747,21.9406852 17.9337913,23.9305939 16.739348,26.0497199 C15.7752518,27.7725886 14.2480652,28.83215 12.5417094,28.83215 C10.2125336,28.83215 8.85598366,27.040365 8.85598366,24.3957676 C8.85598366,19.1754891 13.4887368,18.2279143 17.8740747,18.2279143 L17.8740747,19.554519 M23.9913568,34.4831407 C23.5903638,34.8449432 23.0101981,34.870786 22.5580148,34.6295887 C20.5445203,32.9411815 20.1861816,32.1572788 19.0770504,30.5464 C15.7496566,33.9749001 13.3948922,35 9.07780729,35 C3.97580201,35 0,31.8213159 0,25.4553355 C0,20.4848664 2.67044563,17.0994366 6.46708478,15.4454875 C9.76035029,13.9810469 14.3589787,13.7226221 17.8740747,13.3177494 L17.8740747,12.5252314 C17.8740747,11.0694061 17.9849881,9.34654071 17.1403413,8.08885558 C16.3980716,6.96037459 14.9818018,6.4952009 13.7361588,6.4952009 C11.4240519,6.4952009 9.35935729,7.69259164 8.85598366,10.1735169 C8.75359977,10.7248376 8.35260677,11.2675397 7.80657562,11.2933825 L1.91964996,10.655918 C1.42480587,10.543938 0.878771471,10.1390587 1.01528007,9.37239008 C2.37183327,2.17081492 8.81332289,0 14.5808088,0 C17.5327983,0 21.3891605,0.792518013 23.7183363,3.04947013 C26.6703352,5.83189689 26.3887819,9.54467103 26.3887819,13.5847928 L26.3887819,23.1294638 C26.3887819,25.9980376 27.5661723,27.2557228 28.6753034,28.8063072 C29.0677636,29.3576181 29.1530819,30.0209221 28.6582378,30.4344102 C27.4211309,31.4767474 25.2199342,33.4149705 24.0084159,34.5003747 L23.9913568,34.4831243" id="path30" fill="#CCCCCC"></path>
        </g>
        <g id="Amazon.com_A_Smile" transform="translate(334.000000, 33.000000)">
            <g id="Group">
                <path d="M162.618952,113.378488 C158.20716,107.309493 153.474779,102.371821 153.474779,91.0785333 L153.474779,53.5893398 C153.474779,37.7005688 154.62038,23.1143478 142.845107,12.1831903 C133.576349,3.31872421 118.179381,0.191168299 106.404109,0.191168299 C83.3741232,0.191168299 57.6831489,8.73391857 52.2955723,37.041982 C51.7252848,40.048828 53.9212619,41.6228424 55.9119778,42.0652681 L79.3622725,44.5892746 C81.5582496,44.4784023 83.1439979,42.3316806 83.5690684,40.1695379 C85.5798872,30.4149029 93.7935079,25.7287538 103.02259,25.7287538 C107.999908,25.7287538 113.652261,27.5388703 116.598394,31.9788138 C119.989964,36.9212721 119.534739,43.7142608 119.534739,49.4211264 L119.534739,52.5635717 C105.509001,54.1224308 87.1611388,55.1583024 74.0252177,60.8851091 C58.8737166,67.4114193 48.2339934,80.6908362 48.2339934,100.209678 C48.2339934,125.224276 64.0660834,137.729182 84.4498927,137.729182 C101.652418,137.729182 111.066658,133.691516 124.337216,120.236618 C128.739486,126.581863 130.180017,129.638961 138.20848,136.281195 C140.009012,137.236771 142.330367,137.145839 143.925638,135.708222 L143.931193,135.702904 L143.985947,135.763259 C148.818049,131.489491 157.591905,123.907102 162.53907,119.784354 C164.514709,118.170192 164.164495,115.560572 162.618952,113.378488 Z M115.008149,102.568041 C111.166908,109.355978 105.04875,113.509036 98.2507965,113.509036 C88.9817736,113.509036 83.5391785,106.469576 83.5391785,96.0563538 C83.5391785,75.5569437 102.037283,71.8362077 119.529978,71.8362077 L119.529978,77.0301892 L119.535004,77.0301892 C119.535004,86.4075394 119.760368,94.2159268 115.008149,102.568041 Z" id="path3673" fill="#CCCCCC" fill-rule="nonzero"></path>
                <g id="g3717" transform="translate(0.121151, 132.383163)" fill="#FF9201">
                    <path d="M191.41942,21.9033301 C168.255723,39.0824552 134.663489,48.2228121 105.733234,48.2228121 C65.2027204,48.2228121 28.6941784,33.1641366 1.0688438,8.094283 C-1.09808269,6.12296152 0.836015614,3.4310355 3.43935957,4.96150375 C33.2489474,22.3975211 70.1061902,32.8930935 108.173057,32.8930935 C133.85563,32.8930935 162.081986,27.5408088 188.053699,16.4606976 C191.97171,14.7952521 195.255129,19.0622759 191.41942,21.9033301 Z" id="path3719"></path>
                    <path d="M201.058506,10.8373698 C198.097798,7.02861556 181.467369,9.03259283 174.009286,9.93824687 C171.740565,10.2027588 171.391864,8.22381765 173.429923,6.77172331 C186.691383,-2.59069305 208.422375,0.118649388 210.949914,3.24816305 C213.496946,6.42121778 210.285,28.3169282 197.854141,38.7624284 C195.941701,40.3745361 194.125641,39.5254855 194.97032,37.3985047 C197.766424,30.3698891 204.030044,14.6526551 201.058506,10.8373698 Z" id="path3721"></path>
                </g>
            </g>
        </g>
        <path d="M27.9951172,257.63623 L27.9951172,253.681152 C26.0175682,253.432128 24.4099183,252.989017 23.1721191,252.351807 C21.93432,251.714596 20.8649947,250.685554 19.9641113,249.264648 C19.0632279,247.843743 18.5395515,246.10792 18.3930664,244.057129 L22.3701172,243.310059 C22.6777359,245.434093 23.2197227,246.994136 23.9960938,247.990234 C25.1093806,249.396491 26.442375,250.180175 27.9951172,250.341309 L27.9951172,237.750977 C26.3691325,237.443358 24.7065515,236.813481 23.0073242,235.861328 C21.7475523,235.1582 20.777103,234.184088 20.0959473,232.938965 C19.4147915,231.693841 19.0742188,230.280281 19.0742188,228.698242 C19.0742188,225.885728 20.0703025,223.607919 22.0625,221.864746 C23.3955145,220.692865 25.3730338,219.975099 27.9951172,219.711426 L27.9951172,217.821777 L30.3242188,217.821777 L30.3242188,219.711426 C32.6240349,219.931153 34.4477472,220.604975 35.7954102,221.73291 C37.5239344,223.168464 38.5639631,225.138659 38.9155273,227.643555 L34.8286133,228.258789 C34.5942371,226.706047 34.1071814,225.515873 33.3674316,224.688232 C32.6276818,223.860592 31.6132877,223.314943 30.3242188,223.05127 L30.3242188,234.455078 C32.3164162,234.953127 33.6347624,235.341307 34.2792969,235.619629 C35.5097718,236.161624 36.5131797,236.820797 37.2895508,237.597168 C38.0659219,238.373539 38.6628397,239.296381 39.0803223,240.365723 C39.4978048,241.435064 39.706543,242.592279 39.706543,243.837402 C39.706543,246.576674 38.8349697,248.861807 37.0917969,250.692871 C35.3486241,252.523935 33.0927873,253.50537 30.3242188,253.637207 L30.3242188,257.63623 L27.9951172,257.63623 Z M27.9951172,223.007324 C26.4570236,223.2417 25.2448775,223.856929 24.3586426,224.853027 C23.4724077,225.849126 23.0292969,227.028314 23.0292969,228.390625 C23.0292969,229.738288 23.4064904,230.866206 24.1608887,231.774414 C24.915287,232.682622 26.1933504,233.407712 27.9951172,233.949707 L27.9951172,223.007324 Z M30.3242188,250.341309 C31.8623124,250.150878 33.1330516,249.484381 34.1364746,248.341797 C35.1398976,247.199213 35.6416016,245.785653 35.6416016,244.101074 C35.6416016,242.66552 35.2863805,241.511967 34.5759277,240.640381 C33.865475,239.768794 32.4482528,238.988773 30.3242188,238.300293 L30.3242188,250.341309 Z M43.6835938,244.5625 L47.8364258,244.210938 C48.1440445,246.232432 48.8581487,247.752192 49.9787598,248.770264 C51.0993708,249.788335 52.4506757,250.297363 54.0327148,250.297363 C55.9370212,250.297363 57.5483333,249.579597 58.8666992,248.144043 C60.1850652,246.708489 60.8442383,244.804211 60.8442383,242.431152 C60.8442383,240.175282 60.2106997,238.395514 58.9436035,237.091797 C57.6765073,235.788079 56.0175884,235.13623 53.9667969,235.13623 C52.6923764,235.13623 51.5424856,235.425534 50.5170898,236.00415 C49.4916941,236.582767 48.6860381,237.333491 48.1000977,238.256348 L44.3867188,237.772949 L47.5068359,221.227539 L63.5249023,221.227539 L63.5249023,225.006836 L50.6708984,225.006836 L48.9350586,233.664062 C50.868662,232.3164 52.8974503,231.642578 55.0214844,231.642578 C57.8339984,231.642578 60.2070216,232.616689 62.140625,234.564941 C64.0742284,236.513193 65.0410156,239.018051 65.0410156,242.07959 C65.0410156,244.994643 64.1914147,247.51415 62.4921875,249.638184 C60.4267475,252.245619 57.6069515,253.549316 54.0327148,253.549316 C51.1030127,253.549316 48.7116792,252.729012 46.8586426,251.088379 C45.005606,249.447746 43.9472669,247.272474 43.6835938,244.5625 Z M68.7104492,237.11377 C68.7104492,233.305157 69.102291,230.240002 69.8859863,227.918213 C70.6696817,225.596424 71.8342208,223.80567 73.3796387,222.545898 C74.9250566,221.286127 76.8696172,220.65625 79.2133789,220.65625 C80.9419032,220.65625 82.4580013,221.004147 83.7617188,221.699951 C85.0654362,222.395755 86.1420856,223.399163 86.9916992,224.710205 C87.8413128,226.021247 88.5078101,227.617911 88.9912109,229.500244 C89.4746118,231.382578 89.7163086,233.920394 89.7163086,237.11377 C89.7163086,240.893085 89.3281289,243.943592 88.5517578,246.265381 C87.7753867,248.58717 86.6145097,250.381585 85.0690918,251.648682 C83.5236739,252.915778 81.5717891,253.549316 79.2133789,253.549316 C76.1078946,253.549316 73.6689542,252.436046 71.8964844,250.209473 C69.7724503,247.528795 68.7104492,243.163604 68.7104492,237.11377 Z M72.7753906,237.11377 C72.7753906,242.401882 73.3942809,245.921134 74.6320801,247.671631 C75.8698792,249.422128 77.3969636,250.297363 79.2133789,250.297363 C81.0297942,250.297363 82.5568786,249.418466 83.7946777,247.660645 C85.0324769,245.902823 85.6513672,242.387233 85.6513672,237.11377 C85.6513672,231.811009 85.0324769,228.288095 83.7946777,226.544922 C82.5568786,224.801749 81.0151459,223.930176 79.1694336,223.930176 C77.3530183,223.930176 75.9028375,224.699211 74.8188477,226.237305 C73.4565362,228.200205 72.7753906,231.825657 72.7753906,237.11377 Z" id="$50" fill="#FF9201"></path>
    </g>
</svg>