<?xml version="1.0" encoding="UTF-8"?>
<svg width="48px" height="48px" viewBox="0 0 48 48" version="1.1" xmlns="http://www.w3.org/2000/svg" xmlns:xlink="http://www.w3.org/1999/xlink">
    <!-- Generator: Sketch 52.3 (67297) - http://www.bohemiancoding.com/sketch -->
    <title>icon/bars</title>
    <desc>Created with Sketch.</desc>
    <defs>
        <path d="M1.71428571,8.81632653 L46.2857143,8.81632653 C47.2325357,8.81632653 48,7.93922449 48,6.85714286 L48,1.95918367 C48,0.877102041 47.2325357,0 46.2857143,0 L1.71428571,0 C0.767464286,0 0,0.877102041 0,1.95918367 L0,6.85714286 C0,7.93922449 0.767464286,8.81632653 1.71428571,8.81632653 Z M1.71428571,28.4081633 L46.2857143,28.4081633 C47.2325357,28.4081633 48,27.5310612 48,26.4489796 L48,21.5510204 C48,20.4689388 47.2325357,19.5918367 46.2857143,19.5918367 L1.71428571,19.5918367 C0.767464286,19.5918367 0,20.4689388 0,21.5510204 L0,26.4489796 C0,27.5310612 0.767464286,28.4081633 1.71428571,28.4081633 Z M1.71428571,48 L46.2857143,48 C47.2325357,48 48,47.122898 48,46.0408163 L48,41.1428571 C48,40.0607755 47.2325357,39.1836735 46.2857143,39.1836735 L1.71428571,39.1836735 C0.767464286,39.1836735 0,40.0607755 0,41.1428571 L0,46.0408163 C0,47.122898 0.767464286,48 1.71428571,48 Z" id="path-1"></path>
    </defs>
    <g id="icon/bars" stroke="none" stroke-width="1" fill="none" fill-rule="evenodd">
        <mask id="mask-2" fill="white">
            <use xlink:href="#path-1"></use>
        </mask>
        <use id="Shape" fill="#000000" fill-rule="nonzero" xlink:href="#path-1"></use>
        <g id="color/accent/grey" mask="url(#mask-2)" fill="#D9D9D9" fill-rule="nonzero">
            <polygon points="0 0 48 0 48 48 0 48"></polygon>
        </g>
    </g>
</svg>