<?xml version="1.0" encoding="UTF-8"?>
<svg width="87px" height="87px" viewBox="0 0 87 87" version="1.1" xmlns="http://www.w3.org/2000/svg" xmlns:xlink="http://www.w3.org/1999/xlink">
    <!-- Generator: Sketch 52.2 (67145) - http://www.bohemiancoding.com/sketch -->
    <title>icon/question</title>
    <desc>Created with Sketch.</desc>
    <defs>
        <path d="M87,43.5 C87,67.5297157 67.5226996,87 43.5,87 C19.4773004,87 0,67.5297157 0,43.5 C0,19.4843165 19.4773004,0 43.5,0 C67.5226996,0 87,19.4843165 87,43.5 Z M44.6673085,14.3830645 C35.1083589,14.3830645 29.0116935,18.4097964 24.2242379,25.5664234 C23.6040121,26.4936048 23.8115141,27.7440544 24.7004577,28.418129 L30.7867742,33.0329879 C31.699748,33.7253044 33.0005383,33.5606008 33.709869,32.6607823 C36.8432722,28.686496 38.9917863,26.381873 43.761,26.381873 C47.3443125,26.381873 51.7765766,28.6880746 51.7765766,32.1628125 C51.7765766,34.7896512 49.6080665,36.1386774 46.0700081,38.1223125 C41.9438226,40.4353548 36.483871,43.314248 36.483871,50.516129 L36.483871,51.2177419 C36.483871,52.3801391 37.4263125,53.3225806 38.5887097,53.3225806 L48.4112903,53.3225806 C49.5736875,53.3225806 50.516129,52.3801391 50.516129,51.2177419 L50.516129,50.9839294 C50.516129,45.9916028 65.1072218,45.78375 65.1072218,32.2741935 C65.1072218,22.1004556 54.5540867,14.3830645 44.6673085,14.3830645 Z M43.5,57.8830645 C39.0508972,57.8830645 35.4314516,61.5025101 35.4314516,65.9516129 C35.4314516,70.4005403 39.0508972,74.0201613 43.5,74.0201613 C47.9491028,74.0201613 51.5685484,70.4005403 51.5685484,65.9516129 C51.5685484,61.5025101 47.9491028,57.8830645 43.5,57.8830645 Z" id="path-1"></path>
    </defs>
    <g id="icon/question" stroke="none" stroke-width="1" fill="none" fill-rule="evenodd">
        <mask id="mask-2" fill="white">
            <use xlink:href="#path-1"></use>
        </mask>
        <use id="Shape" fill="#000000" fill-rule="nonzero" xlink:href="#path-1"></use>
        <g id="color/accent/black" mask="url(#mask-2)" fill="#2D3239" fill-rule="nonzero">
            <rect id="Rectangle-Copy-5" x="0" y="0" width="89" height="87"></rect>
        </g>
    </g>
</svg>