<?xml version="1.0" encoding="UTF-8"?>
<svg width="89px" height="87px" viewBox="0 0 89 87" version="1.1" xmlns="http://www.w3.org/2000/svg" xmlns:xlink="http://www.w3.org/1999/xlink">
    <!-- Generator: Sketch 52.2 (67145) - http://www.bohemiancoding.com/sketch -->
    <title>icon/search</title>
    <desc>Created with Sketch.</desc>
    <defs>
        <path d="M87.0908057,74.8938038 L69.8968387,58.0270492 C69.1207821,57.2657614 68.0687941,56.8428237 66.965069,56.8428237 L64.1540193,56.8428237 C68.9138336,50.8709438 71.7421291,43.3595706 71.7421291,35.1884147 C71.7421291,15.7501991 55.6863786,0 35.8710645,0 C16.0557505,0 0,15.7501991 0,35.1884147 C0,54.6266303 16.0557505,70.3768294 35.8710645,70.3768294 C44.2007396,70.3768294 51.8578322,67.6023582 57.9455658,62.9331263 L57.9455658,65.6906799 C57.9455658,66.7734004 58.3767084,67.8053683 59.1527651,68.5666561 L76.3467321,85.4334107 C77.9678283,87.0236564 80.5891753,87.0236564 82.1930258,85.4334107 L87.07356,80.6457562 C88.6946562,79.0555105 88.6946562,76.4840494 87.0908057,74.8938038 Z M35.8710645,56.8428237 C23.6783517,56.8428237 13.7965633,47.1660097 13.7965633,35.1884147 C13.7965633,23.2277372 23.661106,13.5340057 35.8710645,13.5340057 C48.0637773,13.5340057 57.9455658,23.2108197 57.9455658,35.1884147 C57.9455658,47.1490922 48.081023,56.8428237 35.8710645,56.8428237 Z" id="path-1"></path>
    </defs>
    <g id="icon/search" stroke="none" stroke-width="1" fill="none" fill-rule="evenodd">
        <mask id="mask-2" fill="white">
            <use xlink:href="#path-1"></use>
        </mask>
        <use id="Shape" fill="#000000" fill-rule="nonzero" xlink:href="#path-1"></use>
        <g id="color/accent/grey" mask="url(#mask-2)" fill="#D9D9D9" fill-rule="nonzero">
            <polygon points="0 0 89 0 89 87 0 87"></polygon>
        </g>
    </g>
</svg>