<?xml version="1.0" encoding="UTF-8"?>
<svg width="290.449102px" height="79.3576781px" viewBox="0 0 290.449102 79.3576781" version="1.1" xmlns="http://www.w3.org/2000/svg" xmlns:xlink="http://www.w3.org/1999/xlink">
    <!-- Generator: Sketch 52.3 (67297) - http://www.bohemiancoding.com/sketch -->
    <title>fb-large</title>
    <desc>Created with Sketch.</desc>
    <defs>
        <rect id="path-1" x="0" y="0" width="290.449102" height="79.3576781" rx="5"></rect>
        <filter x="-2.4%" y="-6.3%" width="104.8%" height="117.6%" filterUnits="objectBoundingBox" id="filter-2">
            <feOffset dx="0" dy="2" in="SourceAlpha" result="shadowOffsetOuter1"></feOffset>
            <feGaussianBlur stdDeviation="2" in="shadowOffsetOuter1" result="shadowBlurOuter1"></feGaussianBlur>
            <feColorMatrix values="0 0 0 0 0   0 0 0 0 0   0 0 0 0 0  0 0 0 0.5 0" type="matrix" in="shadowBlurOuter1"></feColorMatrix>
        </filter>
    </defs>
    <g id="fb-large" stroke="none" stroke-width="1" fill="none" fill-rule="evenodd">
        <g id="Rectangle" fill-rule="nonzero">
            <use fill="black" fill-opacity="1" filter="url(#filter-2)" xlink:href="#path-1"></use>
            <use fill="#4367B2" xlink:href="#path-1"></use>
        </g>
        <path d="M33.9518599,73.0090638 L33.9518599,43.1941362 L23.8073034,43.1941362 L23.8073034,31.3462828 L33.9518599,31.3462828 L33.9518599,22.011216 C33.9518599,11.8689327 40.2475691,6.34861425 49.4398334,6.34861425 C53.8441846,6.34861425 57.6269006,6.67410472 58.7246818,6.81732053 L58.7246818,17.4152904 L52.349615,17.4152904 C47.3500813,17.4152904 46.3845628,19.7588219 46.3845628,23.1829817 L46.3845628,31.3462828 L57.6665794,31.3462828 L56.1191047,43.1941362 L46.3845628,43.1941362 L46.3845628,73.0090638" id="Path" fill="#FAFAFA"></path>
        <path d="M111.958676,36.3398438 C111.6618,36.3398438 111.389667,36.3151044 111.14227,36.265625 C110.894873,36.2161456 110.721698,36.1666669 110.622739,36.1171875 L110.724789,35.2636719 C111.07733,35.3873704 111.500991,35.4492188 111.995786,35.4492188 C113.313175,35.4492188 114.123388,34.7039463 114.42645,33.2133789 L117.293149,19.4365234 L118.26727,19.4365234 L115.354184,33.269043 C115.137712,34.3204805 114.751159,35.095131 114.194516,35.5930176 C113.637873,36.0909042 112.8926,36.3398438 111.958676,36.3398438 Z M124.074887,22.7207031 C125.188174,22.7207031 126.049412,23.0562304 126.658627,23.7272949 C127.267843,24.3983595 127.572446,25.3245384 127.572446,26.5058594 C127.572446,27.7242899 127.351338,28.8638456 126.909116,29.9245605 C126.466893,30.9852755 125.862326,31.7939425 125.095395,32.3505859 C124.328464,32.9072293 123.444033,33.1855469 122.442075,33.1855469 C121.304048,33.1855469 120.439718,32.8469272 119.849057,32.1696777 C119.258397,31.4924283 118.963071,30.5229555 118.963071,29.2612305 C118.963071,28.0799095 119.188817,26.9728242 119.640317,25.9399414 C120.091816,24.9070586 120.701023,24.1123075 121.467954,23.5556641 C122.234884,22.9990207 123.103854,22.7207031 124.074887,22.7207031 Z M124.000668,23.5185547 C123.233737,23.5185547 122.544128,23.7613094 121.931821,24.2468262 C121.319513,24.7323429 120.830911,25.4281367 120.466,26.3342285 C120.10109,27.2403203 119.918637,28.2005158 119.918637,29.2148438 C119.918637,31.3300887 120.790699,32.3876953 122.534848,32.3876953 C123.320334,32.3876953 124.017674,32.148033 124.626889,31.6687012 C125.236104,31.1893693 125.721614,30.4842983 126.083432,29.5534668 C126.44525,28.6226353 126.626157,27.6005915 126.626157,26.4873047 C126.626157,25.534826 126.40041,24.8019231 125.948911,24.2885742 C125.497411,23.7752253 124.848003,23.5185547 124.000668,23.5185547 Z M130.095883,33 L129.186704,33 L131.32977,22.9155273 L132.220395,22.9155273 L130.095883,33 Z M131.728696,20.3271484 C131.728696,19.9869775 131.796729,19.7148448 131.932797,19.5107422 C132.068866,19.3066396 132.254411,19.2045898 132.489438,19.2045898 C132.841979,19.2045898 133.018247,19.4272439 133.018247,19.8725586 C133.018247,20.2250994 132.950213,20.5034169 132.814145,20.7075195 C132.678077,20.9116221 132.501809,21.0136719 132.285336,21.0136719 C132.105973,21.0136719 131.968361,20.9533697 131.872495,20.8327637 C131.776628,20.7121576 131.728696,20.5436209 131.728696,20.3271484 Z M139.976254,33 L141.358579,26.5800781 C141.488462,26.0110649 141.553403,25.5286478 141.553403,25.1328125 C141.553403,24.6380184 141.418883,24.2514662 141.149838,23.9731445 C140.880794,23.6948228 140.464864,23.5556641 139.902036,23.5556641 C139.209324,23.5556641 138.55837,23.762856 137.949155,24.1772461 C137.339939,24.5916362 136.826598,25.1714644 136.409116,25.916748 C135.991633,26.6620317 135.671568,27.5480092 135.448911,28.574707 L134.502622,33 L133.593442,33 L135.736508,22.9155273 L136.49725,22.9155273 L136.153989,24.9658203 L136.209653,24.9658203 C137.223981,23.4938077 138.510426,22.7578125 140.069028,22.7578125 C140.873068,22.7578125 141.47609,22.9557272 141.87811,23.3515625 C142.28013,23.7473978 142.481137,24.3164025 142.481137,25.0585938 C142.481137,25.4915386 142.406919,26.0543585 142.258481,26.7470703 L140.885434,33 L139.976254,33 Z M154.448911,22.7207031 C155.562197,22.7207031 156.423436,23.0562304 157.032651,23.7272949 C157.641866,24.3983595 157.946469,25.3245384 157.946469,26.5058594 C157.946469,27.7242899 157.725361,28.8638456 157.283139,29.9245605 C156.840917,30.9852755 156.236349,31.7939425 155.469418,32.3505859 C154.702487,32.9072293 153.818056,33.1855469 152.816098,33.1855469 C151.678072,33.1855469 150.813741,32.8469272 150.22308,32.1696777 C149.63242,31.4924283 149.337094,30.5229555 149.337094,29.2612305 C149.337094,28.0799095 149.562841,26.9728242 150.01434,25.9399414 C150.46584,24.9070586 151.075046,24.1123075 151.841977,23.5556641 C152.608908,22.9990207 153.477877,22.7207031 154.448911,22.7207031 Z M154.374692,23.5185547 C153.607761,23.5185547 152.918152,23.7613094 152.305844,24.2468262 C151.693536,24.7323429 151.204935,25.4281367 150.840024,26.3342285 C150.475113,27.2403203 150.292661,28.2005158 150.292661,29.2148438 C150.292661,31.3300887 151.164722,32.3876953 152.908872,32.3876953 C153.694357,32.3876953 154.391697,32.148033 155.000913,31.6687012 C155.610128,31.1893693 156.095637,30.4842983 156.457455,29.5534668 C156.819274,28.6226353 157.00018,27.6005915 157.00018,26.4873047 C157.00018,25.534826 156.774434,24.8019231 156.322934,24.2885742 C155.871434,23.7752253 155.222027,23.5185547 154.374692,23.5185547 Z M162.390317,22.9155273 L160.980161,29.3911133 C160.844092,30.0467155 160.776059,30.5353174 160.776059,30.8569336 C160.776059,31.3146182 160.922949,31.6779772 161.216733,31.9470215 C161.510517,32.2160658 161.938817,32.3505859 162.501645,32.3505859 C163.181987,32.3505859 163.823663,32.1480326 164.426694,31.7429199 C165.029724,31.3378072 165.536881,30.7595252 165.948178,30.0080566 C166.359476,29.256588 166.667171,28.3922575 166.871274,27.4150391 L167.845395,22.9155273 L168.754575,22.9155273 L166.611508,33 L165.869321,33 L166.129086,31.0981445 L166.073422,31.0981445 C165.04054,32.4650133 163.794295,33.1484375 162.334653,33.1484375 C161.524427,33.1484375 160.910583,32.9567076 160.4931,32.5732422 C160.075617,32.1897767 159.866879,31.6300493 159.866879,30.894043 C159.866879,30.5229474 159.934912,29.9972365 160.070981,29.3168945 L161.462582,22.9155273 L162.390317,22.9155273 Z M176.074399,22.7392578 C176.501159,22.7392578 176.881526,22.7825517 177.215512,22.8691406 L177.020688,23.7319336 C176.729996,23.6391597 176.380553,23.5927734 175.972348,23.5927734 C175.390965,23.5927734 174.837422,23.7906881 174.311704,24.1865234 C173.785985,24.5823588 173.312845,25.1761028 172.89227,25.9677734 C172.471695,26.7594441 172.162453,27.6160436 171.964536,28.5375977 L171.036801,33 L170.127622,33 L172.270688,22.9155273 L173.012875,22.9155273 L172.743832,24.8081055 L172.799497,24.8081055 C173.250996,24.2267224 173.631363,23.8076999 173.94061,23.5510254 C174.249856,23.2943509 174.579199,23.09489 174.928647,22.9526367 C175.278095,22.8103834 175.660009,22.7392578 176.074399,22.7392578 Z M183.273618,33 L182.318051,33 L185.194028,19.4365234 L191.762387,19.4365234 L191.57684,20.3085938 L185.973325,20.3085938 L184.730161,26.0605469 L190.018247,26.0605469 L189.823422,26.9418945 L184.544614,26.9418945 L183.273618,33 Z M196.549497,22.7578125 C197.9844,22.7578125 198.847184,23.4350518 199.137875,24.7895508 L199.193539,24.7895508 L199.740903,22.9155273 L200.48309,22.9155273 L198.358579,33 L197.597836,33 L198.015317,30.4580078 L197.959653,30.4580078 C197.440119,31.3362674 196.861837,32.0104143 196.224789,32.4804688 C195.587742,32.9505232 194.854839,33.1855469 194.026059,33.1855469 C192.288095,33.1855469 191.419125,32.0289829 191.419125,29.7158203 C191.419125,28.4973897 191.651057,27.334641 192.114926,26.2275391 C192.578796,25.1204372 193.198825,24.2653839 193.975034,23.6623535 C194.751242,23.0593232 195.609388,22.7578125 196.549497,22.7578125 Z M194.239438,32.3505859 C194.789896,32.3505859 195.3388,32.1588561 195.886166,31.7753906 C196.433532,31.3919252 196.925227,30.8785839 197.361264,30.2353516 C197.797301,29.5921192 198.129736,28.8808633 198.358579,28.1015625 C198.587421,27.3222617 198.70184,26.6635769 198.70184,26.1254883 C198.70184,25.6368791 198.621437,25.1993021 198.460629,24.8127441 C198.299821,24.4261862 198.061705,24.1200369 197.746274,23.8942871 C197.430843,23.6685373 197.038106,23.5556641 196.568051,23.5556641 C195.80112,23.5556641 195.108419,23.8092423 194.489926,24.3164063 C193.871434,24.8235702 193.364277,25.5827586 192.968442,26.5939941 C192.572607,27.6052297 192.374692,28.6118114 192.374692,29.6137695 C192.374692,30.5538784 192.529313,31.2450336 192.838559,31.6872559 C193.147805,32.1294781 193.61476,32.3505859 194.239438,32.3505859 Z M205.40936,33.1855469 C204.333183,33.1855469 203.484314,32.8438348 202.862729,32.1604004 C202.241144,31.476966 201.930356,30.5291402 201.930356,29.3168945 C201.930356,28.1232037 202.157649,27.0052949 202.612241,25.9631348 C203.066833,24.9209746 203.680678,24.1262234 204.453793,23.5788574 C205.226909,23.0314914 206.12371,22.7578125 207.144223,22.7578125 C207.973003,22.7578125 208.718276,22.8907864 209.380063,23.1567383 L209.120297,23.9916992 C208.45851,23.7010077 207.784363,23.5556641 207.097836,23.5556641 C206.299981,23.5556641 205.580994,23.7937802 204.940854,24.2700195 C204.300714,24.7462589 203.798196,25.4327755 203.433286,26.3295898 C203.068375,27.2264042 202.885922,28.2159777 202.885922,29.2983398 C202.885922,30.2755583 203.113215,31.0285618 203.567807,31.557373 C204.022399,32.0861843 204.667168,32.3505859 205.502133,32.3505859 C205.941263,32.3505859 206.347916,32.3103845 206.722104,32.2299805 C207.096292,32.1495764 207.502945,32.0073252 207.942075,31.8032227 L207.942075,32.6567383 C207.224623,33.0092791 206.380393,33.1855469 205.40936,33.1855469 Z M213.564145,33.1855469 C212.494153,33.1855469 211.6592,32.8469272 211.059262,32.1696777 C210.459324,31.4924283 210.15936,30.5476949 210.15936,29.3354492 C210.15936,28.2159775 210.378921,27.1429088 210.818051,26.1162109 C211.257181,25.0895131 211.861749,24.273115 212.631772,23.6669922 C213.401795,23.0608694 214.250664,22.7578125 215.178403,22.7578125 C215.883484,22.7578125 216.446304,22.9464499 216.866879,23.3237305 C217.287454,23.701011 217.497739,24.2143522 217.497739,24.8637695 C217.497739,25.9832413 216.992129,26.8367484 215.980893,27.4243164 C214.969657,28.0118844 213.468289,28.3056641 211.476743,28.3056641 L211.17059,28.3056641 C211.133481,28.5778008 211.114926,28.8808577 211.114926,29.2148438 C211.114926,30.2353567 211.343765,31.0130995 211.80145,31.5480957 C212.259134,32.0830919 212.917819,32.3505859 213.777524,32.3505859 C214.593934,32.3505859 215.447441,32.1248395 216.338071,31.6733398 L216.338071,32.5454102 C215.472181,32.9721701 214.547548,33.1855469 213.564145,33.1855469 Z M215.067075,23.5556641 C214.256849,23.5556641 213.503846,23.9128382 212.808041,24.6271973 C212.112237,25.3415563 211.609719,26.2955669 211.300473,27.4892578 L211.755063,27.4892578 C214.95267,27.4892578 216.55145,26.6543052 216.55145,24.984375 C216.55145,24.5699849 216.416929,24.2282728 216.147885,23.9592285 C215.878841,23.6901842 215.518574,23.5556641 215.067075,23.5556641 Z M222.461118,33.1484375 C221.762221,33.1484375 221.187031,32.9659849 220.735532,32.6010742 C220.284032,32.2361635 219.984068,31.7228223 219.835629,31.0610352 L219.779965,31.0610352 L219.269711,33 L218.527524,33 L221.561215,18.5644531 L222.442563,18.5644531 C221.632338,22.4485871 221.131366,24.7709923 220.939633,25.5317383 L220.995297,25.5317383 C221.570495,24.5668897 222.185886,23.85718 222.841489,23.4025879 C223.497091,22.9479958 224.211439,22.7207031 224.984555,22.7207031 C226.72252,22.7207031 227.591489,23.8803595 227.591489,26.199707 C227.591489,27.4552472 227.356465,28.6303656 226.886411,29.7250977 C226.416356,30.8198297 225.79478,31.6640595 225.021664,32.2578125 C224.248549,32.8515655 223.395042,33.1484375 222.461118,33.1484375 Z M224.780454,23.5556641 C224.217625,23.5556641 223.66099,23.7458477 223.110532,24.1262207 C222.560073,24.5065937 222.06374,25.0307584 221.621518,25.6987305 C221.179296,26.3667026 220.849953,27.0934206 220.633481,27.8789063 C220.417008,28.6643919 220.308774,29.3014298 220.308774,29.7900391 C220.308774,30.5878946 220.506689,31.2141091 220.902524,31.6687012 C221.298359,32.1232933 221.8117,32.3505859 222.442563,32.3505859 C223.209494,32.3505859 223.902195,32.0939153 224.520688,31.5805664 C225.139181,31.0672175 225.646337,30.3095753 226.042172,29.3076172 C226.438008,28.3056591 226.635922,27.3006235 226.635922,26.2924805 C226.635922,25.3523716 226.484394,24.6612164 226.181332,24.2189941 C225.878271,23.7767719 225.411316,23.5556641 224.780454,23.5556641 Z M234.521664,22.7207031 C235.634951,22.7207031 236.496189,23.0562304 237.105405,23.7272949 C237.71462,24.3983595 238.019223,25.3245384 238.019223,26.5058594 C238.019223,27.7242899 237.798115,28.8638456 237.355893,29.9245605 C236.913671,30.9852755 236.309103,31.7939425 235.542172,32.3505859 C234.775241,32.9072293 233.89081,33.1855469 232.888852,33.1855469 C231.750825,33.1855469 230.886495,32.8469272 230.295834,32.1696777 C229.705174,31.4924283 229.409848,30.5229555 229.409848,29.2612305 C229.409848,28.0799095 229.635595,26.9728242 230.087094,25.9399414 C230.538594,24.9070586 231.1478,24.1123075 231.914731,23.5556641 C232.681662,22.9990207 233.550631,22.7207031 234.521664,22.7207031 Z M234.447446,23.5185547 C233.680515,23.5185547 232.990906,23.7613094 232.378598,24.2468262 C231.76629,24.7323429 231.277688,25.4281367 230.912778,26.3342285 C230.547867,27.2403203 230.365414,28.2005158 230.365414,29.2148438 C230.365414,31.3300887 231.237476,32.3876953 232.981625,32.3876953 C233.767111,32.3876953 234.464451,32.148033 235.073666,31.6687012 C235.682882,31.1893693 236.168391,30.4842983 236.530209,29.5534668 C236.892028,28.6226353 237.072934,27.6005915 237.072934,26.4873047 C237.072934,25.534826 236.847188,24.8019231 236.395688,24.2885742 C235.944188,23.7752253 235.294781,23.5185547 234.447446,23.5185547 Z M244.949399,22.7207031 C246.062686,22.7207031 246.923924,23.0562304 247.533139,23.7272949 C248.142354,24.3983595 248.446957,25.3245384 248.446957,26.5058594 C248.446957,27.7242899 248.22585,28.8638456 247.783627,29.9245605 C247.341405,30.9852755 246.736838,31.7939425 245.969907,32.3505859 C245.202976,32.9072293 244.318544,33.1855469 243.316586,33.1855469 C242.17856,33.1855469 241.314229,32.8469272 240.723569,32.1696777 C240.132908,31.4924283 239.837582,30.5229555 239.837582,29.2612305 C239.837582,28.0799095 240.063329,26.9728242 240.514829,25.9399414 C240.966328,24.9070586 241.575534,24.1123075 242.342465,23.5556641 C243.109396,22.9990207 243.978365,22.7207031 244.949399,22.7207031 Z M244.87518,23.5185547 C244.108249,23.5185547 243.41864,23.7613094 242.806332,24.2468262 C242.194025,24.7323429 241.705423,25.4281367 241.340512,26.3342285 C240.975601,27.2403203 240.793149,28.2005158 240.793149,29.2148438 C240.793149,31.3300887 241.66521,32.3876953 243.40936,32.3876953 C244.194845,32.3876953 244.892186,32.148033 245.501401,31.6687012 C246.110616,31.1893693 246.596126,30.4842983 246.957944,29.5534668 C247.319762,28.6226353 247.500668,27.6005915 247.500668,26.4873047 C247.500668,25.534826 247.274922,24.8019231 246.823422,24.2885742 C246.371923,23.7752253 245.722515,23.5185547 244.87518,23.5185547 Z M251.86102,28.574707 L257.510922,22.9155273 L258.67059,22.9155273 L254.273129,27.2666016 L257.0285,33 L256.045102,33 L253.595883,27.8139648 L251.694028,29.5581055 L250.95184,33 L250.061215,33 L253.122739,18.5644531 L254.013364,18.5644531 L252.473325,25.8007813 L251.823911,28.574707 L251.86102,28.574707 Z M144.791196,59.1855469 C143.715018,59.1855469 142.86615,58.8438348 142.244565,58.1604004 C141.62298,57.476966 141.312192,56.5291402 141.312192,55.3168945 C141.312192,54.1232037 141.539484,53.0052949 141.994077,51.9631348 C142.448669,50.9209746 143.062513,50.1262234 143.835629,49.5788574 C144.608745,49.0314914 145.505546,48.7578125 146.526059,48.7578125 C147.354839,48.7578125 148.100112,48.8907864 148.761899,49.1567383 L148.502133,49.9916992 C147.840346,49.7010077 147.166199,49.5556641 146.479672,49.5556641 C145.681817,49.5556641 144.96283,49.7937802 144.32269,50.2700195 C143.68255,50.7462589 143.180032,51.4327755 142.815122,52.3295898 C142.450211,53.2264042 142.267758,54.2159777 142.267758,55.2983398 C142.267758,56.2755583 142.495051,57.0285618 142.949643,57.557373 C143.404235,58.0861843 144.049004,58.3505859 144.883969,58.3505859 C145.323099,58.3505859 145.729752,58.3103845 146.10394,58.2299805 C146.478128,58.1495764 146.884781,58.0073252 147.323911,57.8032227 L147.323911,58.6567383 C146.606459,59.0092791 145.762229,59.1855469 144.791196,59.1855469 Z M154.615903,48.7207031 C155.72919,48.7207031 156.590428,49.0562304 157.199643,49.7272949 C157.808858,50.3983595 158.113461,51.3245384 158.113461,52.5058594 C158.113461,53.7242899 157.892354,54.8638456 157.450131,55.9245605 C157.007909,56.9852755 156.403341,57.7939425 155.636411,58.3505859 C154.86948,58.9072293 153.985048,59.1855469 152.98309,59.1855469 C151.845064,59.1855469 150.980733,58.8469272 150.390073,58.1696777 C149.799412,57.4924283 149.504086,56.5229555 149.504086,55.2612305 C149.504086,54.0799095 149.729833,52.9728242 150.181332,51.9399414 C150.632832,50.9070586 151.242038,50.1123075 152.008969,49.5556641 C152.7759,48.9990207 153.644869,48.7207031 154.615903,48.7207031 Z M154.541684,49.5185547 C153.774753,49.5185547 153.085144,49.7613094 152.472836,50.2468262 C151.860529,50.7323429 151.371927,51.4281367 151.007016,52.3342285 C150.642105,53.2403203 150.459653,54.2005158 150.459653,55.2148438 C150.459653,57.3300887 151.331714,58.3876953 153.075864,58.3876953 C153.861349,58.3876953 154.558689,58.148033 155.167905,57.6687012 C155.77712,57.1893693 156.262629,56.4842983 156.624448,55.5534668 C156.986266,54.6226353 157.167172,53.6005915 157.167172,52.4873047 C157.167172,51.534826 156.941426,50.8019231 156.489926,50.2885742 C156.038427,49.7752253 155.389019,49.5185547 154.541684,49.5185547 Z M165.618832,59 L166.982602,52.7470703 C167.137225,51.9739545 167.214536,51.4729829 167.214536,51.2441406 C167.214536,50.118484 166.738303,49.5556641 165.785825,49.5556641 C165.130222,49.5556641 164.511739,49.7644022 163.930356,50.1818848 C163.348973,50.5993673 162.857278,51.1822879 162.455258,51.9306641 C162.053238,52.6790402 161.743996,53.5665639 161.527524,54.5932617 L160.599789,59 L159.69061,59 L161.833676,48.9155273 L162.575864,48.9155273 L162.269711,50.8637695 L162.325375,50.8637695 C162.82017,50.1648728 163.381443,49.6391619 164.009213,49.2866211 C164.636983,48.9340803 165.294122,48.7578125 165.980649,48.7578125 C166.636251,48.7578125 167.140315,48.9650044 167.492856,49.3793945 C167.845397,49.7937846 168.030942,50.3968059 168.049497,51.1884766 L168.105161,51.1884766 C168.5814,50.390621 169.141127,49.7860535 169.78436,49.3747559 C170.427592,48.9634582 171.114109,48.7578125 171.84393,48.7578125 C172.567567,48.7578125 173.131933,48.9479961 173.537045,49.3283691 C173.942158,49.7087421 174.144711,50.2545537 174.144711,50.9658203 C174.144711,51.1451832 174.13698,51.3199047 174.121518,51.4899902 C174.106056,51.6600757 174.045754,52.0296196 173.94061,52.5986328 L172.530454,59 L171.602719,59 L172.985043,52.6914063 C173.139667,51.949215 173.216977,51.4049496 173.216977,51.0585938 C173.216977,50.5823544 173.084003,50.2128106 172.818051,49.9499512 C172.552099,49.6870918 172.184102,49.5556641 171.714047,49.5556641 C170.743014,49.5556641 169.884868,49.9808714 169.139584,50.8312988 C168.394301,51.6817263 167.873228,52.8027274 167.576352,54.1943359 L166.565122,59 L165.618832,59 Z M181.863461,59 L183.227231,52.7470703 C183.381854,51.9739545 183.459164,51.4729829 183.459164,51.2441406 C183.459164,50.118484 182.982932,49.5556641 182.030454,49.5556641 C181.374851,49.5556641 180.756368,49.7644022 180.174985,50.1818848 C179.593602,50.5993673 179.101907,51.1822879 178.699887,51.9306641 C178.297867,52.6790402 177.988625,53.5665639 177.772153,54.5932617 L176.844418,59 L175.935239,59 L178.078305,48.9155273 L178.820493,48.9155273 L178.51434,50.8637695 L178.570004,50.8637695 C179.064798,50.1648728 179.626072,49.6391619 180.253842,49.2866211 C180.881612,48.9340803 181.538751,48.7578125 182.225278,48.7578125 C182.88088,48.7578125 183.384944,48.9650044 183.737485,49.3793945 C184.090026,49.7937846 184.275571,50.3968059 184.294125,51.1884766 L184.349789,51.1884766 C184.826029,50.390621 185.385756,49.7860535 186.028989,49.3747559 C186.672221,48.9634582 187.358738,48.7578125 188.088559,48.7578125 C188.812195,48.7578125 189.376562,48.9479961 189.781674,49.3283691 C190.186787,49.7087421 190.38934,50.2545537 190.38934,50.9658203 C190.38934,51.1451832 190.381609,51.3199047 190.366147,51.4899902 C190.350685,51.6600757 190.290382,52.0296196 190.185239,52.5986328 L188.775082,59 L187.847348,59 L189.229672,52.6914063 C189.384295,51.949215 189.461606,51.4049496 189.461606,51.0585938 C189.461606,50.5823544 189.328632,50.2128106 189.06268,49.9499512 C188.796728,49.6870918 188.428731,49.5556641 187.958676,49.5556641 C186.987643,49.5556641 186.129497,49.9808714 185.384213,50.8312988 C184.63893,51.6817263 184.117857,52.8027274 183.820981,54.1943359 L182.80975,59 L181.863461,59 Z M195.046567,48.9155273 L193.636411,55.3911133 C193.500342,56.0467155 193.432309,56.5353174 193.432309,56.8569336 C193.432309,57.3146182 193.579199,57.6779772 193.872983,57.9470215 C194.166767,58.2160658 194.595067,58.3505859 195.157895,58.3505859 C195.838237,58.3505859 196.479913,58.1480326 197.082944,57.7429199 C197.685974,57.3378072 198.193131,56.7595252 198.604428,56.0080566 C199.015726,55.256588 199.323421,54.3922575 199.527524,53.4150391 L200.501645,48.9155273 L201.410825,48.9155273 L199.267758,59 L198.525571,59 L198.785336,57.0981445 L198.729672,57.0981445 C197.69679,58.4650133 196.450545,59.1484375 194.990903,59.1484375 C194.180677,59.1484375 193.566833,58.9567076 193.14935,58.5732422 C192.731867,58.1897767 192.523129,57.6300493 192.523129,56.894043 C192.523129,56.5229474 192.591162,55.9972365 192.727231,55.3168945 L194.118832,48.9155273 L195.046567,48.9155273 Z M209.203793,59 L210.586118,52.5800781 C210.716001,52.0110649 210.780942,51.5286478 210.780942,51.1328125 C210.780942,50.6380184 210.646422,50.2514662 210.377377,49.9731445 C210.108333,49.6948228 209.692403,49.5556641 209.129575,49.5556641 C208.436863,49.5556641 207.785909,49.762856 207.176694,50.1772461 C206.567478,50.5916362 206.054137,51.1714644 205.636655,51.916748 C205.219172,52.6620317 204.899107,53.5480092 204.67645,54.574707 L203.730161,59 L202.820981,59 L204.964047,48.9155273 L205.724789,48.9155273 L205.381528,50.9658203 L205.437192,50.9658203 C206.45152,49.4938077 207.737965,48.7578125 209.296567,48.7578125 C210.100607,48.7578125 210.703629,48.9557272 211.105649,49.3515625 C211.507669,49.7473978 211.708676,50.3164025 211.708676,51.0585938 C211.708676,51.4915386 211.634458,52.0543585 211.48602,52.7470703 L210.112973,59 L209.203793,59 Z M214.334164,59 L213.424985,59 L215.568051,48.9155273 L216.458676,48.9155273 L214.334164,59 Z M215.966977,46.3271484 C215.966977,45.9869775 216.03501,45.7148448 216.171079,45.5107422 C216.307147,45.3066396 216.492692,45.2045898 216.727719,45.2045898 C217.08026,45.2045898 217.256528,45.4272439 217.256528,45.8725586 C217.256528,46.2250994 217.188495,46.5034169 217.052426,46.7075195 C216.916358,46.9116221 216.74009,47.0136719 216.523618,47.0136719 C216.344255,47.0136719 216.206642,46.9533697 216.110776,46.8327637 C216.014909,46.7121576 215.966977,46.5436209 215.966977,46.3271484 Z M223.565122,48.9155273 L223.398129,49.6669922 L220.772641,49.6669922 L219.5202,55.5581055 C219.384131,56.1704132 219.316098,56.6775696 219.316098,57.0795898 C219.316098,57.9392947 219.705743,58.3691406 220.485043,58.3691406 C220.905618,58.3691406 221.375666,58.2887378 221.8952,58.1279297 L221.8952,58.9257813 C221.270522,59.0989592 220.744811,59.1855469 220.318051,59.1855469 C219.705743,59.1855469 219.232604,59.0170101 218.898618,58.6799316 C218.564632,58.3428531 218.397641,57.852705 218.397641,57.2094727 C218.397641,56.757973 218.487321,56.1209351 218.666684,55.2983398 L219.863461,49.6669922 L218.174985,49.6669922 L218.304868,49.0454102 L220.011899,48.8876953 L220.911801,46.5405273 L221.422055,46.5405273 L220.911801,48.9155273 L223.565122,48.9155273 Z M223.982602,48.9155273 L224.910336,48.9155273 L225.671079,53.9995117 C225.98651,56.170421 226.156593,57.5589162 226.181332,58.1650391 L226.283383,58.1650391 C226.549335,57.5156218 227.124525,56.3807047 228.008969,54.7602539 L231.237485,48.9155273 L232.193051,48.9155273 L225.578305,60.8833008 C225.13299,61.6687865 224.754169,62.2192367 224.44183,62.534668 C224.129492,62.8500992 223.776956,63.100585 223.384213,63.2861328 C222.99147,63.4716806 222.538431,63.5644531 222.025082,63.5644531 C221.604507,63.5644531 221.205586,63.4995124 220.828305,63.3696289 L220.828305,62.5161133 C221.267435,62.6831063 221.691096,62.7666016 222.099301,62.7666016 C222.594095,62.7666016 223.048681,62.6135269 223.463071,62.307373 C223.877461,62.0012192 224.279475,61.4925166 224.669125,60.78125 C225.058776,60.0699834 225.368017,59.5009787 225.59686,59.0742188 L223.982602,48.9155273 Z" id="Join-our-Facebook-co" fill="#F2F2F2"></path>
    </g>
</svg>